<svg width="200" height="200" viewBox="0 0 200 200" fill="none" xmlns="http://www.w3.org/2000/svg">
  <!-- Circle background -->
  <circle cx="100" cy="100" r="90" fill="#1E40AF" opacity="0.1"/>
  
  <!-- Interlocking hands forming a circle -->
  <!-- Hand 1 (top) -->
  <path d="M100 30 C110 30 118 35 122 42 L130 60 C132 65 130 70 125 72 L105 82 C100 84 95 82 93 77 L85 59 C83 52 88 42 95 38 C97 36 98.5 30 100 30Z" fill="#1E40AF"/>
  
  <!-- Hand 2 (right) -->
  <path d="M170 100 C170 110 165 118 158 122 L140 130 C135 132 130 130 128 125 L118 105 C116 100 118 95 123 93 L141 85 C148 83 158 88 162 95 C164 97 170 98.5 170 100Z" fill="#F59E0B"/>
  
  <!-- Hand 3 (bottom) -->
  <path d="M100 170 C90 170 82 165 78 158 L70 140 C68 135 70 130 75 128 L95 118 C100 116 105 118 107 123 L115 141 C117 148 112 158 105 162 C103 164 101.5 170 100 170Z" fill="#10B981"/>
  
  <!-- Hand 4 (left) -->
  <path d="M30 100 C30 90 35 82 42 78 L60 70 C65 68 70 70 72 75 L82 95 C84 100 82 105 77 107 L59 115 C52 117 42 112 38 105 C36 103 30 101.5 30 100Z" fill="#1E40AF"/>
  
  <!-- Center circle (unity) -->
  <circle cx="100" cy="100" r="25" fill="#F59E0B"/>
  <circle cx="100" cy="100" r="20" fill="white"/>
  
  <!-- Inner symbol (heart/trust) -->
  <path d="M100 90 C95 90 92 93 92 97 C92 103 100 110 100 110 C100 110 108 103 108 97 C108 93 105 90 100 90Z" fill="#1E40AF"/>
</svg>
